<svg width="185" height="37" viewBox="0 0 185 37" fill="none" xmlns="http://www.w3.org/2000/svg">
<path d="M7.20388 18.72L8.11588 11.952L2.73988 16.176L0.435875 12.096L6.72388 9.6L0.483875 7.2L2.64388 3.312L8.16388 7.488L7.20388 0.623998H11.6679L10.7079 7.488L16.1799 3.312L18.2919 7.152L12.0519 9.648L18.3399 12.144L16.0839 16.128L10.7079 11.952L11.6199 18.72H7.20388ZM37.6771 36.576C35.2131 36.576 32.9891 36.096 31.0051 35.136C29.0211 34.144 27.4371 32.656 26.2531 30.672C25.1011 28.688 24.5251 26.176 24.5251 23.136V2.4H30.6691V23.184C30.6691 25.808 31.2931 27.76 32.5411 29.04C33.8211 30.32 35.5811 30.96 37.8211 30.96C40.0291 30.96 41.7731 30.32 43.0531 29.04C44.3331 27.76 44.9731 25.808 44.9731 23.184V2.4H51.1171V23.136C51.1171 26.176 50.5091 28.688 49.2931 30.672C48.0771 32.656 46.4451 34.144 44.3971 35.136C42.3811 36.096 40.1411 36.576 37.6771 36.576ZM68.861 36.576C66.397 36.576 64.221 36.16 62.333 35.328C60.445 34.464 58.957 33.248 57.869 31.68C56.781 30.08 56.221 28.144 56.189 25.872H62.669C62.733 27.44 63.293 28.768 64.349 29.856C65.437 30.912 66.925 31.44 68.813 31.44C70.445 31.44 71.741 31.056 72.701 30.288C73.661 29.488 74.141 28.432 74.141 27.12C74.141 25.744 73.709 24.672 72.845 23.904C72.013 23.136 70.893 22.512 69.485 22.032C68.077 21.552 66.573 21.04 64.973 20.496C62.381 19.6 60.397 18.448 59.021 17.04C57.677 15.632 57.005 13.76 57.005 11.424C56.973 9.44 57.437 7.744 58.397 6.336C59.389 4.896 60.733 3.792 62.429 3.024C64.125 2.224 66.077 1.824 68.285 1.824C70.525 1.824 72.493 2.224 74.189 3.024C75.917 3.824 77.261 4.944 78.221 6.384C79.213 7.824 79.741 9.536 79.805 11.52H73.229C73.197 10.336 72.733 9.296 71.837 8.4C70.973 7.472 69.757 7.008 68.189 7.008C66.845 6.976 65.709 7.312 64.781 8.016C63.885 8.688 63.437 9.68 63.437 10.992C63.437 12.112 63.789 13.008 64.493 13.68C65.197 14.32 66.157 14.864 67.373 15.312C68.589 15.76 69.981 16.24 71.549 16.752C73.213 17.328 74.733 18 76.109 18.768C77.485 19.536 78.589 20.56 79.421 21.84C80.253 23.088 80.669 24.704 80.669 26.688C80.669 28.448 80.221 30.08 79.325 31.584C78.429 33.088 77.101 34.304 75.341 35.232C73.581 36.128 71.421 36.576 68.861 36.576ZM97.5016 36.576C95.0376 36.576 92.8616 36.16 90.9736 35.328C89.0856 34.464 87.5976 33.248 86.5096 31.68C85.4216 30.08 84.8616 28.144 84.8296 25.872H91.3096C91.3736 27.44 91.9336 28.768 92.9896 29.856C94.0776 30.912 95.5656 31.44 97.4536 31.44C99.0856 31.44 100.382 31.056 101.342 30.288C102.302 29.488 102.782 28.432 102.782 27.12C102.782 25.744 102.35 24.672 101.486 23.904C100.654 23.136 99.5336 22.512 98.1256 22.032C96.7176 21.552 95.2136 21.04 93.6136 20.496C91.0216 19.6 89.0376 18.448 87.6616 17.04C86.3176 15.632 85.6456 13.76 85.6456 11.424C85.6136 9.44 86.0776 7.744 87.0376 6.336C88.0296 4.896 89.3736 3.792 91.0696 3.024C92.7656 2.224 94.7176 1.824 96.9256 1.824C99.1656 1.824 101.134 2.224 102.83 3.024C104.558 3.824 105.902 4.944 106.862 6.384C107.854 7.824 108.382 9.536 108.446 11.52H101.87C101.838 10.336 101.374 9.296 100.478 8.4C99.6136 7.472 98.3976 7.008 96.8296 7.008C95.4856 6.976 94.3496 7.312 93.4216 8.016C92.5256 8.688 92.0776 9.68 92.0776 10.992C92.0776 12.112 92.4296 13.008 93.1336 13.68C93.8376 14.32 94.7976 14.864 96.0136 15.312C97.2296 15.76 98.6216 16.24 100.19 16.752C101.854 17.328 103.374 18 104.75 18.768C106.126 19.536 107.23 20.56 108.062 21.84C108.894 23.088 109.31 24.704 109.31 26.688C109.31 28.448 108.862 30.08 107.966 31.584C107.07 33.088 105.742 34.304 103.982 35.232C102.222 36.128 100.062 36.576 97.5016 36.576ZM114.67 36V2.4H126.142C130.078 2.4 133.31 3.104 135.838 4.512C138.398 5.888 140.286 7.84 141.502 10.368C142.75 12.864 143.374 15.808 143.374 19.2C143.374 22.592 142.75 25.552 141.502 28.08C140.286 30.576 138.398 32.528 135.838 33.936C133.31 35.312 130.078 36 126.142 36H114.67ZM120.814 30.72H125.854C128.67 30.72 130.894 30.272 132.526 29.376C134.158 28.448 135.326 27.136 136.03 25.44C136.734 23.712 137.086 21.632 137.086 19.2C137.086 16.8 136.734 14.736 136.03 13.008C135.326 11.28 134.158 9.952 132.526 9.024C130.894 8.096 128.67 7.632 125.854 7.632H120.814V30.72ZM152.251 36L154.027 27.6H147.115V22.08H155.227L156.715 15.072H149.659V9.552H157.915L159.691 1.296H165.451L163.675 9.552H172.795L174.571 1.296H180.331L178.603 9.552H184.843V15.072H177.403L175.915 22.08H182.299V27.6H174.715L172.939 36H167.131L168.955 27.6H159.835L158.059 36H152.251ZM160.987 22.08H170.107L171.643 15.072H162.523L160.987 22.08Z" fill="#292561"/>
</svg>
