<svg width="16" height="13" viewBox="0 0 16 13" fill="none" xmlns="http://www.w3.org/2000/svg">
<path d="M0 2.25C0 1.68641 0.210714 1.14591 0.585786 0.747398C0.960859 0.348883 1.46957 0.125 2 0.125H14C14.5304 0.125 15.0391 0.348883 15.4142 0.747398C15.7893 1.14591 16 1.68641 16 2.25V10.75C16 11.3136 15.7893 11.8541 15.4142 12.2526C15.0391 12.6511 14.5304 12.875 14 12.875H2C1.46957 12.875 0.960859 12.6511 0.585786 12.2526C0.210714 11.8541 0 11.3136 0 10.75V2.25ZM2 1.1875C1.73478 1.1875 1.48043 1.29944 1.29289 1.4987C1.10536 1.69796 1 1.96821 1 2.25V3.3125H15V2.25C15 1.96821 14.8946 1.69796 14.7071 1.4987C14.5196 1.29944 14.2652 1.1875 14 1.1875H2ZM15 5.4375H1V10.75C1 11.0318 1.10536 11.302 1.29289 11.5013C1.48043 11.7006 1.73478 11.8125 2 11.8125H14C14.2652 11.8125 14.5196 11.7006 14.7071 11.5013C14.8946 11.302 15 11.0318 15 10.75V5.4375Z" fill="white"/>
<path d="M2 8.625C2 8.34321 2.10536 8.07296 2.29289 7.8737C2.48043 7.67444 2.73478 7.5625 3 7.5625H4C4.26522 7.5625 4.51957 7.67444 4.70711 7.8737C4.89464 8.07296 5 8.34321 5 8.625V9.6875C5 9.96929 4.89464 10.2395 4.70711 10.4388C4.51957 10.6381 4.26522 10.75 4 10.75H3C2.73478 10.75 2.48043 10.6381 2.29289 10.4388C2.10536 10.2395 2 9.96929 2 9.6875V8.625Z" fill="white"/>
</svg>
