<svg width="179" height="24" viewBox="0 0 179 24" fill="none" xmlns="http://www.w3.org/2000/svg">
<path d="M34.6402 11.8168H38.7052C39.1542 11.8168 39.5182 12.2005 39.5182 12.6739C39.5182 13.1471 39.1542 13.5311 38.7052 13.5311H34.6402C34.1911 13.5311 33.8271 13.1471 33.8271 12.6739C33.8271 12.2005 34.1911 11.8168 34.6402 11.8168Z" fill="#FAAF40"/>
<path d="M42.77 11.8168H46.8351C47.2841 11.8168 47.6481 12.2005 47.6481 12.6739C47.6481 13.1471 47.2841 13.5311 46.8351 13.5311H42.77C42.321 13.5311 41.957 13.1471 41.957 12.6739C41.957 12.2005 42.321 11.8168 42.77 11.8168Z" fill="#FAAF40"/>
<path d="M50.8999 11.8168H54.965C55.414 11.8168 55.778 12.2005 55.778 12.6739C55.778 13.1471 55.414 13.5311 54.965 13.5311H50.8999C50.4509 13.5311 50.0869 13.1471 50.0869 12.6739C50.0869 12.2005 50.4509 11.8168 50.8999 11.8168Z" fill="#FAAF40"/>
<path d="M59.0308 11.8168H63.0958C63.5449 11.8168 63.9088 12.2005 63.9088 12.6739C63.9088 13.1471 63.5449 13.5311 63.0958 13.5311H59.0308C58.5817 13.5311 58.2178 13.1471 58.2178 12.6739C58.2178 12.2005 58.5817 11.8168 59.0308 11.8168Z" fill="#FAAF40"/>
<path d="M67.1607 11.8168H71.2257C71.6748 11.8168 72.0387 12.2005 72.0387 12.6739C72.0387 13.1471 71.6748 13.5311 71.2257 13.5311H67.1607C66.7116 13.5311 66.3477 13.1471 66.3477 12.6739C66.3477 12.2005 66.7116 11.8168 67.1607 11.8168Z" fill="#FAAF40"/>
<path d="M75.2905 11.8168H79.3556C79.8046 11.8168 80.1686 12.2005 80.1686 12.6739C80.1686 13.1471 79.8046 13.5311 79.3556 13.5311H75.2905C74.8415 13.5311 74.4775 13.1471 74.4775 12.6739C74.4775 12.2005 74.8415 11.8168 75.2905 11.8168Z" fill="#FAAF40"/>
<path d="M83.4204 11.8168H87.4855C87.9345 11.8168 88.2985 12.2005 88.2985 12.6739C88.2985 13.1471 87.9345 13.5311 87.4855 13.5311H83.4204C82.9714 13.5311 82.6074 13.1471 82.6074 12.6739C82.6074 12.2005 82.9714 11.8168 83.4204 11.8168Z" fill="#FAAF40"/>
<path d="M91.5503 11.8168H95.6154C96.0644 11.8168 96.4284 12.2005 96.4284 12.6739C96.4284 13.1471 96.0644 13.5311 95.6154 13.5311H91.5503C91.1013 13.5311 90.7373 13.1471 90.7373 12.6739C90.7373 12.2005 91.1013 11.8168 91.5503 11.8168Z" fill="#FAAF40"/>
<path d="M99.6812 11.8168H103.746C104.195 11.8168 104.559 12.2005 104.559 12.6739C104.559 13.1471 104.195 13.5311 103.746 13.5311H99.6812C99.2321 13.5311 98.8682 13.1471 98.8682 12.6739C98.8682 12.2005 99.2321 11.8168 99.6812 11.8168Z" fill="#FAAF40"/>
<path d="M107.811 11.8168H111.876C112.325 11.8168 112.689 12.2005 112.689 12.6739C112.689 13.1471 112.325 13.5311 111.876 13.5311H107.811C107.362 13.5311 106.998 13.1471 106.998 12.6739C106.998 12.2005 107.362 11.8168 107.811 11.8168Z" fill="#FAAF40"/>
<path d="M115.941 11.8168H120.006C120.455 11.8168 120.819 12.2005 120.819 12.6739C120.819 13.1471 120.455 13.5311 120.006 13.5311H115.941C115.492 13.5311 115.128 13.1471 115.128 12.6739C115.128 12.2005 115.492 11.8168 115.941 11.8168Z" fill="#FAAF40"/>
<path d="M124.071 11.8168H128.136C128.585 11.8168 128.949 12.2005 128.949 12.6739C128.949 13.1471 128.585 13.5311 128.136 13.5311H124.071C123.622 13.5311 123.258 13.1471 123.258 12.6739C123.258 12.2005 123.622 11.8168 124.071 11.8168Z" fill="#FAAF40"/>
<path d="M132.201 11.8168H136.266C136.715 11.8168 137.079 12.2005 137.079 12.6739C137.079 13.1471 136.715 13.5311 136.266 13.5311H132.201C131.752 13.5311 131.388 13.1471 131.388 12.6739C131.388 12.2005 131.752 11.8168 132.201 11.8168Z" fill="#FAAF40"/>
<path d="M140.332 11.8168H144.397C144.845 11.8168 145.21 12.2005 145.21 12.6739C145.21 13.1471 144.845 13.5311 144.397 13.5311H140.332C139.883 13.5311 139.519 13.1471 139.519 12.6739C139.519 12.2005 139.883 11.8168 140.332 11.8168Z" fill="#FAAF40"/>
<path d="M11.1316 0.544928C11.3384 0.410642 11.5991 0.410642 11.8059 0.544928L22.1384 7.25007C22.3834 7.40893 22.4983 7.72036 22.42 8.01236C22.3416 8.30407 22.0888 8.5055 21.8013 8.5055H1.13623C0.848692 8.5055 0.595847 8.30407 0.517527 8.01236C0.439207 7.72036 0.554112 7.40921 0.799099 7.25007L11.1316 0.544928ZM20.9192 9.2615V9.9395C20.9192 10.3141 20.6311 10.6175 20.2761 10.6175H2.66143C2.30642 10.6175 2.01861 10.3141 2.01861 9.9395V9.2615H20.9192ZM5.44815 19.9872H2.87579V11.4158H5.44815V19.9872ZM10.3216 19.9872H7.74924V11.4158H10.3216V19.9872ZM15.1948 19.9872H12.6224V11.4158H15.1948V19.9872ZM20.0677 19.9872H17.4956V11.4158H20.0677V19.9872ZM21.801 20.7586C22.1563 20.7586 22.4441 21.0621 22.4441 21.4366V23.2446C22.4441 23.6192 22.1563 23.9226 21.801 23.9226H1.13704C0.781754 23.9226 0.493678 23.6192 0.493678 23.2446V21.4366C0.493678 21.0621 0.781754 20.7586 1.13704 20.7586H21.801Z" fill="#292561"/>
<path d="M167.23 0.544928C167.436 0.410642 167.697 0.410642 167.903 0.544928L178.236 7.25007C178.481 7.40893 178.596 7.72036 178.518 8.01236C178.439 8.30407 178.186 8.5055 177.899 8.5055H157.234C156.947 8.5055 156.694 8.30407 156.615 8.01236C156.537 7.72036 156.652 7.40921 156.897 7.25007L167.23 0.544928ZM177.017 9.2615V9.9395C177.017 10.3141 176.729 10.6175 176.374 10.6175H158.759C158.404 10.6175 158.116 10.3141 158.116 9.9395V9.2615H177.017ZM161.546 19.9872H158.974V11.4158H161.546V19.9872ZM166.419 19.9872H163.847V11.4158H166.419V19.9872ZM171.292 19.9872H168.72V11.4158H171.292V19.9872ZM176.165 19.9872H173.593V11.4158H176.165V19.9872ZM177.899 20.7586C178.254 20.7586 178.542 21.0621 178.542 21.4366V23.2446C178.542 23.6192 178.254 23.9226 177.899 23.9226H157.235C156.879 23.9226 156.591 23.6192 156.591 23.2446V21.4366C156.591 21.0621 156.879 20.7586 157.235 20.7586H177.899Z" fill="#292561"/>
</svg>
